<svg xmlns="http://www.w3.org/2000/svg" viewBox="0 0 496.8 496.8" xml:space="preserve"><path style="fill:#f97906" d="M456 496.4v-57.6c0-44-35.2-78.4-79.2-78.4H119.2c-44 0-79.2 33.6-79.2 78.4v57.6z"/><path style="fill:#e57200" d="M40 440.4v56h416v-56"/><ellipse style="fill:#f4ba38" cx="248" cy="374.8" rx="59.2" ry="52.8"/><path style="fill:#5b5b5b" d="M312 356.4c0 34.4-28 60-62.4 60h-4c-34.4 0-62.4-25.6-62.4-60V326c0-34.4 28-62.4 62.4-62.4h4c34.4 0 62.4 28 62.4 62.4z"/><path style="fill:#3f3f3f" d="M248.8 261.2c34.4 0 63.2 28 63.2 62.4v33.6c0 34.4-28 60-62.4 60"/><path style="fill:#ffcc4d" d="M112 68.4c0 2.4-1.6 4-4 4s-4-1.6-4-4v-64c0-2.4 1.6-4 4-4s4 1.6 4 4z"/><path style="fill:#f4ba38" d="M108 .4c3.2 0 4 .8 4 4v58.4q0 4.8-4.8 4.8"/><path style="fill:#f29130" d="M96 56.4h24v32H96z"/><path style="fill:#f97906" d="M96 56.4h24v32"/><path style="fill:#0b6382" d="M136 135.6c0 9.6-7.2 16.8-16.8 16.8H96.8c-9.6 0-16.8-7.2-16.8-16.8V97.2c0-9.6 7.2-16.8 16.8-16.8h22.4c9.6 0 16.8 7.2 16.8 16.8z"/><path style="fill:#00233f" d="M96 80.4h23.2c9.6 0 16.8 7.2 16.8 16.8V134c0 9.6-8.8 18.4-17.6 18.4H96"/><path style="fill:#0b6382" d="M408 135.6c0 9.6-7.2 16.8-16.8 16.8h-22.4c-9.6 0-16.8-7.2-16.8-16.8V97.2c0-9.6 7.2-16.8 16.8-16.8h22.4c9.6 0 16.8 7.2 16.8 16.8z"/><path style="fill:#00233f" d="M376 80.4h16c9.6 0 16 8 16 17.6v36c0 9.6-6.4 18.4-16 18.4h-16"/><path style="fill:#f97906" d="M496 240.4c0 44.8-19.2 80-64 80H64c-44.8 0-64-34.4-64-80v-65.6C0 130 35.2 96.4 80.8 96.4H416c44.8 0 80.8 33.6 80.8 79.2v64.8z"/><path style="fill:#f29130" d="M496 240.4c0 44.8-19.2 80-64 80H64c-44.8 0-64-34.4-64-80v-65.6C0 130 35.2 96.4 80.8 96.4H416c44.8 0 80.8 33.6 80.8 79.2v64.8z"/><path style="fill:#f97906" d="M496 176.4v64c0 44.8-19.2 80-64 80H64c-44.8 0-64-34.4-64-80v-64"/><path style="fill:#e57200" d="M496 239.6c0 44.8-19.2 80.8-64 80.8H64c-44.8 0-64-36-64-81.6"/><circle style="fill:#0b6382" cx="108" cy="206" r="81.6"/><circle style="opacity:.2;fill:#727272" cx="108" cy="214.8" r="81.6"/><path style="fill:#00233f" d="M108 124.4c44.8 0 81.6 36.8 81.6 81.6s-36.8 81.6-81.6 81.6"/><circle style="fill:#fffaf5" cx="108" cy="206" r="55.2"/><circle style="fill:#fffaf5" cx="108" cy="206" r="55.2"/><path style="fill:#efebe8" d="M69.6 166.8c21.6-21.6 56.8-21.6 78.4 0s21.6 56.8 0 78.4"/><path style="fill:#cccac8" d="M108 165.2c29.6 0 53.6 14.4 55.2 44V206c0-30.4-24.8-55.2-55.2-55.2S52.8 175.6 52.8 206v3.2c2.4-28.8 26.4-44 55.2-44"/><circle style="fill:#cccac8" cx="91.2" cy="137.2" r="3.2"/><circle style="fill:#cccac8" cx="108" cy="137.2" r="3.2"/><circle style="fill:#cccac8" cx="125.6" cy="137.2" r="3.2"/><path style="fill:#727272" d="M119.2 206c0 5.6-4.8 10.4-10.4 10.4s-10.4-4.8-10.4-10.4 4.8-10.4 10.4-10.4 10.4 4.8 10.4 10.4"/><path style="fill:#3f3f3f" d="M108 195.6c5.6 0 10.4 4.8 10.4 10.4s-4.8 10.4-10.4 10.4"/><circle style="fill:#fffaf5" cx="104" cy="202" r="3.2"/><circle style="fill:#fffaf5" cx="112.8" cy="210.8" r="1.6"/><circle style="fill:#0b6382" cx="382.4" cy="206" r="81.6"/><circle style="opacity:.2;fill:#727272" cx="382.4" cy="214.8" r="81.6"/><path style="fill:#00233f" d="M382.4 124.4c44.8 0 81.6 36.8 81.6 81.6s-36.8 81.6-81.6 81.6"/><circle style="fill:#fffaf5" cx="382.4" cy="206" r="55.2"/><circle style="fill:#fffaf5" cx="382.4" cy="206" r="55.2"/><path style="fill:#efebe8" d="M343.2 166.8c21.6-21.6 56.8-21.6 78.4 0s21.6 56.8 0 78.4"/><path style="fill:#cccac8" d="M382.4 165.2c29.6 0 53.6 14.4 55.2 44V206c0-30.4-24.8-55.2-55.2-55.2s-55.2 24.8-55.2 55.2v3.2c1.6-28.8 25.6-44 55.2-44"/><circle style="fill:#cccac8" cx="365.6" cy="137.2" r="3.2"/><circle style="fill:#cccac8" cx="382.4" cy="137.2" r="3.2"/><circle style="fill:#cccac8" cx="399.2" cy="137.2" r="3.2"/><path style="fill:#727272" d="M392.8 206c0 5.6-4.8 10.4-10.4 10.4S372 211.6 372 206s4.8-10.4 10.4-10.4 10.4 4.8 10.4 10.4"/><path style="fill:#3f3f3f" d="M382.4 195.6c5.6 0 10.4 4.8 10.4 10.4s-4.8 10.4-10.4 10.4"/><circle style="fill:#fffaf5" cx="378.4" cy="202" r="3.2"/><circle style="fill:#fffaf5" cx="386.4" cy="210.8" r="1.6"/><path style="fill:#ffcc4d" d="M102.4 105.2c0-4 3.2-8.8 7.2-8.8h277.6c4 0 7.2 4 7.2 8"/><path style="opacity:.2;fill:#727272" d="M295.2 280.4c0 9.6.8 16-8.8 16h-77.6c-9.6 0-8.8-6.4-8.8-16s7.2-16 16.8-16h61.6c9.6 0 16.8 6.4 16.8 16"/><path style="fill:#ffe650" d="M295.2 272.4c0 9.6.8 16-8.8 16h-77.6c-9.6 0-8.8-6.4-8.8-16s7.2-16 16.8-16h61.6c9.6 0 16.8 6.4 16.8 16"/><path style="fill:#ffc200" d="M295.2 272.4c0 9.6.8 16-8.8 16h-77.6c-9.6 0-8.8-7.2-8.8-16"/><path style="fill:#ffed94" d="m192 93.2 56-9.6 56 9.6v28l-56 34.4-56-34.4z"/><path style="fill:#ffcc4d" d="m192 93.2 56 15.2 56-15.2v28l-56 34.4-56-34.4z"/><path style="fill:#f4ba38" d="m248 108.4 56-15.2v28l-56 34.4"/><path style="fill:#ffcc4d" d="M104.8 66.8h8v8h-8z"/><path style="fill:#ffed94" d="M104 9.2h8v2.4h-8zm0 10.4h8V22h-8zm0 9.6h8v2.4h-8zm0 10.4h8V42h-8zm0 10.4h8v2.4h-8z"/><path style="fill:#686868" d="M184 336.4h128v8H184zm0 16h128v8H184z"/><path style="fill:#a0d827" d="M80 416.4h32v32H80z"/><path style="fill:#cff23b" d="m104 434-24 11.2v-28.8h24z"/><path style="fill:#e2336d" d="M120 416.4h32v32h-32z"/><path style="fill:#f45683" d="m144 434-24 11.2v-28.8h24z"/><path style="fill:#ffcc4d" d="M404 444.4c0 2.4-1.6 4-4 4h-54.4c-2.4 0-4-1.6-4-4s1.6-4 4-4H400c2.4 0 4 1.6 4 4m0-24c0 2.4-1.6 4-4 4h-54.4c-2.4 0-4-1.6-4-4s1.6-4 4-4H400c2.4 0 4 1.6 4 4m0 48c0 2.4-1.6 4-4 4h-54.4c-2.4 0-4-1.6-4-4s1.6-4 4-4H400c2.4 0 4 1.6 4 4"/><path style="fill:#ffc200" d="M248.8 240.4c0 .8-.8 2.4-2.4 2.4-.8 0-2.4-.8-2.4-2.4V134.8c0-.8.8-2.4 2.4-2.4.8 0 2.4.8 2.4 2.4z"/></svg>